<svg xmlns="http://www.w3.org/2000/svg" viewBox="0 0 100 100" width="100px" height="100px">
	<circle cx="49.979" cy="50.021" r="35" fill="#78a2d2"/>
	<circle cx="49.979" cy="50.021" r="30" fill="#fefdef"/>
	<path fill="#1f212b"
		  d="M50,86c-19.851,0-36-16.149-36-36s16.149-36,36-36s36,16.149,36,36S69.851,86,50,86z M50,16	c-18.748,0-34,15.252-34,34s15.252,34,34,34s34-15.252,34-34S68.748,16,50,16z"/>
	<path fill="#1f212b"
		  d="M50,80c-16.542,0-30-13.458-30-30s13.458-30,30-30c3.289,0,6.539,0.538,9.661,1.599	c0.261,0.089,0.401,0.373,0.313,0.635c-0.09,0.262-0.372,0.398-0.635,0.313C56.321,21.521,53.18,21,50,21c-15.99,0-29,13.01-29,29	s13.01,29,29,29s29-13.01,29-29c0-8.313-3.583-16.241-9.831-21.752c-0.207-0.183-0.227-0.499-0.044-0.706s0.498-0.227,0.706-0.044	C76.293,33.199,80,41.4,80,50C80,66.542,66.542,80,50,80z"/>
	<path fill="#1f212b"
		  d="M64.5,24.813c-0.084,0-0.168-0.021-0.246-0.064c-0.651-0.369-1.313-0.711-1.966-1.017	c-0.25-0.117-0.358-0.415-0.241-0.665c0.117-0.251,0.417-0.358,0.665-0.241c0.677,0.317,1.36,0.671,2.034,1.052	c0.24,0.137,0.325,0.441,0.189,0.682C64.843,24.722,64.674,24.813,64.5,24.813z"/>
	<path fill="#1f212b"
		  d="M67.5,26.754c-0.104,0-0.208-0.032-0.297-0.098c-0.323-0.239-0.649-0.475-0.982-0.699	c-0.229-0.154-0.29-0.465-0.135-0.693c0.154-0.23,0.466-0.287,0.693-0.136c0.345,0.233,0.683,0.477,1.018,0.724	c0.223,0.164,0.27,0.478,0.105,0.699C67.804,26.684,67.652,26.754,67.5,26.754z"/>
	<path fill="#1f212b"
		  d="M47.216,63.004v-3.715c0-1.175,0.439-2.311,1.318-3.409c0.879-1.098,1.946-2.107,3.202-3.026	l3.763-2.721c1.28-0.919,2.368-1.96,3.263-3.122c0.896-1.162,1.344-2.356,1.344-3.583c0-1.328-0.455-2.503-1.363-3.525	c-0.909-1.021-2.183-1.532-3.821-1.532c-1.383,0-2.502,0.392-3.36,1.175c-0.857,0.783-1.286,1.907-1.286,3.37	c0,0.283-0.122,0.527-0.364,0.732c-0.242,0.205-0.568,0.307-0.976,0.307c-0.765,0-1.147-0.522-1.147-1.568	c0-1.836,0.69-3.353,2.071-4.552c1.381-1.198,3.094-1.797,5.139-1.797c2.198,0,4.019,0.699,5.465,2.096	c1.444,1.396,2.167,3.136,2.167,5.219c0,1.277-0.32,2.503-0.959,3.678c-0.638,1.175-1.432,2.171-2.377,2.989	c-0.945,0.817-1.981,1.647-3.105,2.49l-3.111,2.222c-0.947,0.639-1.74,1.361-2.38,2.165c-0.639,0.805-0.958,1.603-0.958,2.395v2.375	h12.238c0.255,0,0.473,0.115,0.652,0.344c0.178,0.229,0.269,0.497,0.269,0.803c0,0.306-0.089,0.581-0.268,0.823	C62.454,63.879,62.237,64,61.983,64H48.398c-0.279,0-0.546-0.096-0.801-0.287C47.342,63.522,47.216,63.285,47.216,63.004z"/>
	<path fill="#1f212b"
		  d="M37.248,42.159c0-0.217,0.048-0.422,0.144-0.614c0.095-0.191,3.551-4.971,3.551-4.971	C41.222,36.191,41.54,36,41.896,36c0.279,0,0.533,0.09,0.762,0.268C42.886,36.447,43,36.676,43,36.957v26.049	c0,0.306-0.127,0.549-0.381,0.727C42.365,63.911,42.073,64,41.743,64c-0.356,0-0.654-0.089-0.895-0.268	c-0.242-0.178-0.362-0.421-0.362-0.727V40.323l-1.524,2.486c-0.204,0.306-0.444,0.459-0.724,0.459c-0.28,0-0.514-0.108-0.705-0.325	C37.343,42.727,37.248,42.465,37.248,42.159z"/>
</svg>
